<?xml version="1.0" encoding="UTF-8" standalone="no"?>
<!DOCTYPE svg PUBLIC "-//W3C//DTD SVG 1.1//EN"
 "http://www.w3.org/Graphics/SVG/1.1/DTD/svg11.dtd">
<!-- Generated by graphviz version 2.43.0 (0)
 -->
<!-- Title: %3 Pages: 1 -->
<svg width="1017pt" height="44pt"
 viewBox="0.00 0.00 1017.00 44.00" xmlns="http://www.w3.org/2000/svg" xmlns:xlink="http://www.w3.org/1999/xlink">
<g id="graph0" class="graph" transform="scale(1 1) rotate(0) translate(4 40)">
<title>%3</title>
<polygon fill="white" stroke="transparent" points="-4,4 -4,-40 1013,-40 1013,4 -4,4"/>
<!-- Client -->
<g id="node1" class="node">
<title>Client</title>
<path fill="lightgrey" stroke="black" stroke-width="2" d="M42,-36C42,-36 12,-36 12,-36 6,-36 0,-30 0,-24 0,-24 0,-12 0,-12 0,-6 6,0 12,0 12,0 42,0 42,0 48,0 54,-6 54,-12 54,-12 54,-24 54,-24 54,-30 48,-36 42,-36"/>
<text text-anchor="middle" x="27" y="-14.3" font-family="Times,serif" font-size="14.00">Client</text>
</g>
<!-- LB -->
<g id="node2" class="node">
<title>LB</title>
<path fill="lightgrey" stroke="black" stroke-width="2" d="M174,-36C174,-36 102,-36 102,-36 96,-36 90,-30 90,-24 90,-24 90,-12 90,-12 90,-6 96,0 102,0 102,0 174,0 174,0 180,0 186,-6 186,-12 186,-12 186,-24 186,-24 186,-30 180,-36 174,-36"/>
<text text-anchor="middle" x="138" y="-14.3" font-family="Times,serif" font-size="14.00">Load Balancer</text>
</g>
<!-- Client&#45;&gt;LB -->
<g id="edge1" class="edge">
<title>Client&#45;&gt;LB</title>
<path fill="none" stroke="black" d="M54.11,-18C61.89,-18 70.74,-18 79.69,-18"/>
<polygon fill="black" stroke="black" points="79.79,-21.5 89.79,-18 79.79,-14.5 79.79,-21.5"/>
</g>
<!-- Reactor -->
<g id="node3" class="node">
<title>Reactor</title>
<path fill="lightgrey" stroke="black" stroke-width="2" d="M320,-36C320,-36 234,-36 234,-36 228,-36 222,-30 222,-24 222,-24 222,-12 222,-12 222,-6 228,0 234,0 234,0 320,0 320,0 326,0 332,-6 332,-12 332,-12 332,-24 332,-24 332,-30 326,-36 320,-36"/>
<text text-anchor="middle" x="277" y="-14.3" font-family="Times,serif" font-size="14.00">Reactor Runtime</text>
</g>
<!-- LB&#45;&gt;Reactor -->
<g id="edge2" class="edge">
<title>LB&#45;&gt;Reactor</title>
<path fill="none" stroke="black" d="M186.15,-18C194.38,-18 203.07,-18 211.67,-18"/>
<polygon fill="black" stroke="black" points="211.7,-21.5 221.7,-18 211.7,-14.5 211.7,-21.5"/>
</g>
<!-- Scheduler -->
<g id="node4" class="node">
<title>Scheduler</title>
<path fill="lightgrey" stroke="black" stroke-width="2" d="M480,-36C480,-36 380,-36 380,-36 374,-36 368,-30 368,-24 368,-24 368,-12 368,-12 368,-6 374,0 380,0 380,0 480,0 480,0 486,0 492,-6 492,-12 492,-12 492,-24 492,-24 492,-30 486,-36 480,-36"/>
<text text-anchor="middle" x="430" y="-14.3" font-family="Times,serif" font-size="14.00">Adaptive Scheduler</text>
</g>
<!-- Reactor&#45;&gt;Scheduler -->
<g id="edge3" class="edge">
<title>Reactor&#45;&gt;Scheduler</title>
<path fill="none" stroke="black" d="M332.09,-18C340.42,-18 349.13,-18 357.77,-18"/>
<polygon fill="black" stroke="black" points="357.85,-21.5 367.85,-18 357.85,-14.5 357.85,-21.5"/>
</g>
<!-- Workers -->
<g id="node5" class="node">
<title>Workers</title>
<path fill="lightgrey" stroke="black" stroke-width="2" d="M602,-36C602,-36 540,-36 540,-36 534,-36 528,-30 528,-24 528,-24 528,-12 528,-12 528,-6 534,0 540,0 540,0 602,0 602,0 608,0 614,-6 614,-12 614,-12 614,-24 614,-24 614,-30 608,-36 602,-36"/>
<text text-anchor="middle" x="571" y="-14.3" font-family="Times,serif" font-size="14.00">Worker Pool</text>
</g>
<!-- Scheduler&#45;&gt;Workers -->
<g id="edge4" class="edge">
<title>Scheduler&#45;&gt;Workers</title>
<path fill="none" stroke="black" d="M492.37,-18C500.76,-18 509.3,-18 517.51,-18"/>
<polygon fill="black" stroke="black" points="517.69,-21.5 527.69,-18 517.69,-14.5 517.69,-21.5"/>
</g>
<!-- Batcher -->
<g id="node6" class="node">
<title>Batcher</title>
<path fill="lightgrey" stroke="black" stroke-width="2" d="M728,-36C728,-36 662,-36 662,-36 656,-36 650,-30 650,-24 650,-24 650,-12 650,-12 650,-6 656,0 662,0 662,0 728,0 728,0 734,0 740,-6 740,-12 740,-12 740,-24 740,-24 740,-30 734,-36 728,-36"/>
<text text-anchor="middle" x="695" y="-14.3" font-family="Times,serif" font-size="14.00">Batch Engine</text>
</g>
<!-- Workers&#45;&gt;Batcher -->
<g id="edge5" class="edge">
<title>Workers&#45;&gt;Batcher</title>
<path fill="none" stroke="black" d="M614.33,-18C622.45,-18 631.06,-18 639.5,-18"/>
<polygon fill="black" stroke="black" points="639.67,-21.5 649.67,-18 639.67,-14.5 639.67,-21.5"/>
</g>
<!-- Socket -->
<g id="node7" class="node">
<title>Socket</title>
<path fill="lightgrey" stroke="black" stroke-width="2" d="M868,-36C868,-36 788,-36 788,-36 782,-36 776,-30 776,-24 776,-24 776,-12 776,-12 776,-6 782,0 788,0 788,0 868,0 868,0 874,0 880,-6 880,-12 880,-12 880,-24 880,-24 880,-30 874,-36 868,-36"/>
<text text-anchor="middle" x="828" y="-14.3" font-family="Times,serif" font-size="14.00">Socket Runtime</text>
</g>
<!-- Batcher&#45;&gt;Socket -->
<g id="edge6" class="edge">
<title>Batcher&#45;&gt;Socket</title>
<path fill="none" stroke="black" d="M740.35,-18C748.57,-18 757.28,-18 765.89,-18"/>
<polygon fill="black" stroke="black" points="765.92,-21.5 775.92,-18 765.92,-14.5 765.92,-21.5"/>
</g>
<!-- Storage -->
<g id="node8" class="node">
<title>Storage</title>
<path fill="lightgrey" stroke="black" stroke-width="2" d="M997,-36C997,-36 928,-36 928,-36 922,-36 916,-30 916,-24 916,-24 916,-12 916,-12 916,-6 922,0 928,0 928,0 997,0 997,0 1003,0 1009,-6 1009,-12 1009,-12 1009,-24 1009,-24 1009,-30 1003,-36 997,-36"/>
<text text-anchor="middle" x="962.5" y="-14.3" font-family="Times,serif" font-size="14.00">Storage Layer</text>
</g>
<!-- Socket&#45;&gt;Storage -->
<g id="edge7" class="edge">
<title>Socket&#45;&gt;Storage</title>
<path fill="none" stroke="black" d="M880.23,-18C888.51,-18 897.13,-18 905.52,-18"/>
<polygon fill="black" stroke="black" points="905.6,-21.5 915.6,-18 905.6,-14.5 905.6,-21.5"/>
</g>
</g>
</svg>
